<svg id="enrichment_category_graph_svg" height="302.27976pt" version="1.1" viewBox="0 0 659.39976 302.27976" width="659.39976pt" xmlns="http://www.w3.org/2000/svg" xmlns:xlink="http://www.w3.org/1999/xlink">
 <metadata>
  <rdf:rdf xmlns:cc="http://creativecommons.org/ns#" xmlns:dc="http://purl.org/dc/elements/1.1/" xmlns:rdf="http://www.w3.org/1999/02/22-rdf-syntax-ns#">
   <cc:work>
    <dc:type rdf:resource="http://purl.org/dc/dcmitype/StillImage"/>
    <dc:date>2025-02-17T13:03:44.774810</dc:date>
    <dc:format>image/svg+xml</dc:format>
    <dc:creator>
     <cc:agent>
      <dc:title>Matplotlib v3.4.2, https://matplotlib.org/</dc:title>
     </cc:agent>
    </dc:creator>
   </cc:work>
  </rdf:rdf>
 </metadata>
 <defs>
  <style type="text/css">*{stroke-linecap:butt;stroke-linejoin:round;}</style>
 </defs>
 <g id="figure_1">
  <g id="patch_1">
   <path d="M 0 302.27976 &#10;L 659.39976 302.27976 &#10;L 659.39976 0 &#10;L 0 0 &#10;z&#10;" style="fill:none;"/>
  </g>
  <g id="axes_1">
   <g id="patch_2">
    <path d="M 132.766719 265.022801 &#10;L 536.457343 265.022801 &#10;L 536.457343 21.207656 &#10;L 132.766719 21.207656 &#10;z&#10;" style="fill:none;"/>
   </g>
   <g id="matplotlib.axis_1">
    <g id="xtick_1">
     <g id="line2d_1">
      <path clip-path="url(#pd5eab2faf7)" d="M 194.982826 265.022801 &#10;L 194.982826 21.207656 &#10;" style="fill:none;stroke:#d3d3d3;stroke-dasharray:2.22,0.96;stroke-dashoffset:0;stroke-width:0.6;"/>
     </g>
     <g id="line2d_2"/>
     <g id="text_1">
      <text style="font-family:Arial;font-size:9px;font-stretch:normal;font-style:normal;font-weight:normal;text-anchor:middle;" transform="rotate(-0, 194.982826, 274.964832)" x="194.982826" y="274.964832">0.6</text>
     </g>
    </g>
    <g id="xtick_2">
     <g id="line2d_3">
      <path clip-path="url(#pd5eab2faf7)" d="M 263.094634 265.022801 &#10;L 263.094634 21.207656 &#10;" style="fill:none;stroke:#d3d3d3;stroke-dasharray:2.22,0.96;stroke-dashoffset:0;stroke-width:0.6;"/>
     </g>
     <g id="line2d_4"/>
     <g id="text_2">
      <text style="font-family:Arial;font-size:9px;font-stretch:normal;font-style:normal;font-weight:normal;text-anchor:middle;" transform="rotate(-0, 263.094634, 274.964832)" x="263.094634" y="274.964832">0.8</text>
     </g>
    </g>
    <g id="xtick_3">
     <g id="line2d_5">
      <path clip-path="url(#pd5eab2faf7)" d="M 331.206441 265.022801 &#10;L 331.206441 21.207656 &#10;" style="fill:none;stroke:#d3d3d3;stroke-dasharray:2.22,0.96;stroke-dashoffset:0;stroke-width:0.6;"/>
     </g>
     <g id="line2d_6"/>
     <g id="text_3">
      <text style="font-family:Arial;font-size:9px;font-stretch:normal;font-style:normal;font-weight:normal;text-anchor:middle;" transform="rotate(-0, 331.206441, 274.964832)" x="331.206441" y="274.964832">1.0</text>
     </g>
    </g>
    <g id="xtick_4">
     <g id="line2d_7">
      <path clip-path="url(#pd5eab2faf7)" d="M 399.318248 265.022801 &#10;L 399.318248 21.207656 &#10;" style="fill:none;stroke:#d3d3d3;stroke-dasharray:2.22,0.96;stroke-dashoffset:0;stroke-width:0.6;"/>
     </g>
     <g id="line2d_8"/>
     <g id="text_4">
      <text style="font-family:Arial;font-size:9px;font-stretch:normal;font-style:normal;font-weight:normal;text-anchor:middle;" transform="rotate(-0, 399.318248, 274.964832)" x="399.318248" y="274.964832">1.2</text>
     </g>
    </g>
    <g id="xtick_5">
     <g id="line2d_9">
      <path clip-path="url(#pd5eab2faf7)" d="M 467.430055 265.022801 &#10;L 467.430055 21.207656 &#10;" style="fill:none;stroke:#d3d3d3;stroke-dasharray:2.22,0.96;stroke-dashoffset:0;stroke-width:0.6;"/>
     </g>
     <g id="line2d_10"/>
     <g id="text_5">
      <text style="font-family:Arial;font-size:9px;font-stretch:normal;font-style:normal;font-weight:normal;text-anchor:middle;" transform="rotate(-0, 467.430055, 274.964832)" x="467.430055" y="274.964832">1.4</text>
     </g>
    </g>
    <g id="xtick_6">
     <g id="line2d_11">
      <path clip-path="url(#pd5eab2faf7)" d="M 535.541862 265.022801 &#10;L 535.541862 21.207656 &#10;" style="fill:none;stroke:#d3d3d3;stroke-dasharray:2.22,0.96;stroke-dashoffset:0;stroke-width:0.6;"/>
     </g>
     <g id="line2d_12"/>
     <g id="text_6">
      <text style="font-family:Arial;font-size:9px;font-stretch:normal;font-style:normal;font-weight:normal;text-anchor:middle;" transform="rotate(-0, 535.541862, 274.964832)" x="535.541862" y="274.964832">1.6</text>
     </g>
    </g>
    <g id="text_7">
     <text style="font-family:Arial;font-size:9px;font-stretch:normal;font-style:normal;font-weight:normal;text-anchor:middle;" transform="rotate(-0, 334.612031, 287.305301)" x="334.612031" y="287.305301">Signal</text>
    </g>
   </g>
   <g id="matplotlib.axis_2">
    <g id="ytick_1">
     <g id="line2d_13"/>
     <g id="text_8">
      <text style="font-family:Arial;font-size:9px;font-stretch:normal;font-style:normal;font-weight:normal;text-anchor:end;" transform="rotate(-0, 129.266719, 54.963221)" x="129.266719" y="54.963221">FoxO signaling pathway</text>
     </g>
    </g>
    <g id="ytick_2">
     <g id="line2d_14"/>
     <g id="text_9">
      <text style="font-family:Arial;font-size:9px;font-stretch:normal;font-style:normal;font-weight:normal;" transform="translate(18.717187 81.214333)">Neuroactive ligand-receptor</text>
      <text style="font-family:Arial;font-size:9px;font-stretch:normal;font-style:normal;font-weight:normal;" transform="translate(87.745781 90.838989)">interaction</text>
     </g>
    </g>
    <g id="ytick_3">
     <g id="line2d_15"/>
     <g id="text_10">
      <text style="font-family:Arial;font-size:9px;font-stretch:normal;font-style:normal;font-weight:normal;text-anchor:end;" transform="rotate(-0, 129.266719, 115.859351)" x="129.266719" y="115.859351">Wnt signaling pathway</text>
     </g>
    </g>
    <g id="ytick_4">
     <g id="line2d_16"/>
     <g id="text_11">
      <text style="font-family:Arial;font-size:9px;font-stretch:normal;font-style:normal;font-weight:normal;" transform="translate(7.2 142.168119)">Longevity regulating pathway -</text>
      <text style="font-family:Arial;font-size:9px;font-stretch:normal;font-style:normal;font-weight:normal;" transform="translate(65.241563 151.792776)">multiple species</text>
     </g>
    </g>
    <g id="ytick_5">
     <g id="line2d_17"/>
     <g id="text_12">
      <text style="font-family:Arial;font-size:9px;font-stretch:normal;font-style:normal;font-weight:normal;text-anchor:end;" transform="rotate(-0, 129.266719, 176.813137)" x="129.266719" y="176.813137">Autophagy - animal</text>
     </g>
    </g>
    <g id="ytick_6">
     <g id="line2d_18"/>
     <g id="text_13">
      <text style="font-family:Arial;font-size:9px;font-stretch:normal;font-style:normal;font-weight:normal;text-anchor:end;" transform="rotate(-0, 129.266719, 207.347687)" x="129.266719" y="207.347687">mTOR signaling pathway</text>
     </g>
    </g>
    <g id="ytick_7">
     <g id="line2d_19"/>
     <g id="text_14">
      <text style="font-family:Arial;font-size:9px;font-stretch:normal;font-style:normal;font-weight:normal;text-anchor:end;" transform="rotate(-0, 129.266719, 237.766924)" x="129.266719" y="237.766924">Mitophagy - animal</text>
     </g>
    </g>
   </g>
   <g id="patch_3">
    <path clip-path="url(#pd5eab2faf7)" d="M 132.766719 219.916999 &#10;L 536.457343 219.916999 &#10;L 536.457343 247.346203 &#10;L 132.766719 247.346203 &#10;z&#10;" style="fill:#234da0;opacity:0.1;"/>
   </g>
   <g id="patch_4">
    <path clip-path="url(#pd5eab2faf7)" d="M 132.766719 189.440106 &#10;L 536.457343 189.440106 &#10;L 536.457343 216.86931 &#10;L 132.766719 216.86931 &#10;z&#10;" style="fill:#1f7ab5;opacity:0.1;"/>
   </g>
   <g id="patch_5">
    <path clip-path="url(#pd5eab2faf7)" d="M 132.766719 158.963213 &#10;L 536.457343 158.963213 &#10;L 536.457343 186.392417 &#10;L 132.766719 186.392417 &#10;z&#10;" style="fill:#2fa4c2;opacity:0.1;"/>
   </g>
   <g id="patch_6">
    <path clip-path="url(#pd5eab2faf7)" d="M 132.766719 128.48632 &#10;L 536.457343 128.48632 &#10;L 536.457343 155.915524 &#10;L 132.766719 155.915524 &#10;z&#10;" style="fill:#2fa4c2;opacity:0.1;"/>
   </g>
   <g id="patch_7">
    <path clip-path="url(#pd5eab2faf7)" d="M 132.766719 98.009427 &#10;L 536.457343 98.009427 &#10;L 536.457343 125.438631 &#10;L 132.766719 125.438631 &#10;z&#10;" style="fill:#5fc1c0;opacity:0.1;"/>
   </g>
   <g id="patch_8">
    <path clip-path="url(#pd5eab2faf7)" d="M 132.766719 67.532534 &#10;L 536.457343 67.532534 &#10;L 536.457343 94.961738 &#10;L 132.766719 94.961738 &#10;z&#10;" style="fill:#a0dab8;opacity:0.1;"/>
   </g>
   <g id="patch_9">
    <path clip-path="url(#pd5eab2faf7)" d="M 132.766719 37.055641 &#10;L 536.457343 37.055641 &#10;L 536.457343 64.484844 &#10;L 132.766719 64.484844 &#10;z&#10;" style="fill:#d6efb3;opacity:0.1;"/>
   </g>
   <g id="line2d_20">
    <path clip-path="url(#pd5eab2faf7)" d="M 132.766719 51.684549 &#10;L 515.10832 51.684549 &#10;" style="fill:none;stroke:#d6efb3;stroke-linecap:square;stroke-width:3;"/>
   </g>
   <g id="line2d_21">
    <path clip-path="url(#pd5eab2faf7)" d="M 132.766719 82.161442 &#10;L 412.940609 82.161442 &#10;" style="fill:none;stroke:#a0dab8;stroke-linecap:square;stroke-width:3;"/>
   </g>
   <g id="line2d_22">
    <path clip-path="url(#pd5eab2faf7)" d="M 132.766719 112.638336 &#10;L 358.451164 112.638336 &#10;" style="fill:none;stroke:#5fc1c0;stroke-linecap:square;stroke-width:3;"/>
   </g>
   <g id="line2d_23">
    <path clip-path="url(#pd5eab2faf7)" d="M 132.766719 143.115229 &#10;L 290.339356 143.115229 &#10;" style="fill:none;stroke:#2fa4c2;stroke-linecap:square;stroke-width:3;"/>
   </g>
   <g id="line2d_24">
    <path clip-path="url(#pd5eab2faf7)" d="M 132.766719 173.592122 &#10;L 280.122585 173.592122 &#10;" style="fill:none;stroke:#2fa4c2;stroke-linecap:square;stroke-width:3;"/>
   </g>
   <g id="line2d_25">
    <path clip-path="url(#pd5eab2faf7)" d="M 132.766719 204.069015 &#10;L 205.199598 204.069015 &#10;" style="fill:none;stroke:#1f7ab5;stroke-linecap:square;stroke-width:3;"/>
   </g>
   <g id="line2d_26">
    <path clip-path="url(#pd5eab2faf7)" d="M 132.766719 234.545908 &#10;L 154.115742 234.545908 &#10;" style="fill:none;stroke:#234da0;stroke-linecap:square;stroke-width:3;"/>
   </g>
   <g id="PathCollection_1">
    <path clip-path="url(#pd5eab2faf7)" d="M 515.10832 63.931998 &#10;C 518.356381 63.931998 521.471848 62.64153 523.768574 60.344803 &#10;C 526.0653 58.048077 527.355769 54.932611 527.355769 51.684549 &#10;C 527.355769 48.436488 526.0653 45.321022 523.768574 43.024295 &#10;C 521.471848 40.727569 518.356381 39.437101 515.10832 39.437101 &#10;C 511.860259 39.437101 508.744792 40.727569 506.448066 43.024295 &#10;C 504.15134 45.321022 502.860871 48.436488 502.860871 51.684549 &#10;C 502.860871 54.932611 504.15134 58.048077 506.448066 60.344803 &#10;C 508.744792 62.64153 511.860259 63.931998 515.10832 63.931998 &#10;z&#10;" style="fill:#d6efb3;stroke:#b5c2a4;stroke-width:2.2;"/>
    <path clip-path="url(#pd5eab2faf7)" d="M 412.940609 92.962677 &#10;C 415.80513 92.962677 418.552713 91.824591 420.578235 89.799069 &#10;C 422.603758 87.773547 423.741844 85.025963 423.741844 82.161442 &#10;C 423.741844 79.296922 422.603758 76.549338 420.578235 74.523816 &#10;C 418.552713 72.498294 415.80513 71.360208 412.940609 71.360208 &#10;C 410.076088 71.360208 407.328505 72.498294 405.302983 74.523816 &#10;C 403.277461 76.549338 402.139375 79.296922 402.139375 82.161442 &#10;C 402.139375 85.025963 403.277461 87.773547 405.302983 89.799069 &#10;C 407.328505 91.824591 410.076088 92.962677 412.940609 92.962677 &#10;z&#10;" style="fill:#a0dab8;stroke:#9bb7a7;stroke-width:2.2;"/>
    <path clip-path="url(#pd5eab2faf7)" d="M 358.451164 123.43957 &#10;C 361.315684 123.43957 364.063268 122.301484 366.08879 120.275962 &#10;C 368.114312 118.25044 369.252398 115.502856 369.252398 112.638336 &#10;C 369.252398 109.773815 368.114312 107.026232 366.08879 105.000709 &#10;C 364.063268 102.975187 361.315684 101.837101 358.451164 101.837101 &#10;C 355.586643 101.837101 352.839059 102.975187 350.813537 105.000709 &#10;C 348.788015 107.026232 347.649929 109.773815 347.649929 112.638336 &#10;C 347.649929 115.502856 348.788015 118.25044 350.813537 120.275962 &#10;C 352.839059 122.301484 355.586643 123.43957 358.451164 123.43957 &#10;z&#10;" style="fill:#5fc1c0;stroke:#7babaa;stroke-width:2.2;"/>
    <path clip-path="url(#pd5eab2faf7)" d="M 290.339356 152.243938 &#10;C 292.760318 152.243938 295.08245 151.28208 296.794329 149.570201 &#10;C 298.506207 147.858322 299.468066 145.536191 299.468066 143.115229 &#10;C 299.468066 140.694267 298.506207 138.372135 296.794329 136.660257 &#10;C 295.08245 134.948378 292.760318 133.986519 290.339356 133.986519 &#10;C 287.918394 133.986519 285.596263 134.948378 283.884384 136.660257 &#10;C 282.172506 138.372135 281.210647 140.694267 281.210647 143.115229 &#10;C 281.210647 145.536191 282.172506 147.858322 283.884384 149.570201 &#10;C 285.596263 151.28208 287.918394 152.243938 290.339356 152.243938 &#10;z&#10;" style="fill:#2fa4c2;stroke:#649dac;stroke-width:2.2;"/>
    <path clip-path="url(#pd5eab2faf7)" d="M 280.122585 184.393356 &#10;C 282.987106 184.393356 285.734689 183.25527 287.760211 181.229748 &#10;C 289.785734 179.204226 290.92382 176.456643 290.92382 173.592122 &#10;C 290.92382 170.727601 289.785734 167.980018 287.760211 165.954496 &#10;C 285.734689 163.928974 282.987106 162.790887 280.122585 162.790887 &#10;C 277.258064 162.790887 274.510481 163.928974 272.484959 165.954496 &#10;C 270.459437 167.980018 269.321351 170.727601 269.321351 173.592122 &#10;C 269.321351 176.456643 270.459437 179.204226 272.484959 181.229748 &#10;C 274.510481 183.25527 277.258064 184.393356 280.122585 184.393356 &#10;z&#10;" style="fill:#2fa4c2;stroke:#649dac;stroke-width:2.2;"/>
    <path clip-path="url(#pd5eab2faf7)" d="M 205.199598 213.197724 &#10;C 207.62056 213.197724 209.942691 212.235866 211.65457 210.523987 &#10;C 213.366448 208.812109 214.328307 206.489977 214.328307 204.069015 &#10;C 214.328307 201.648053 213.366448 199.325921 211.65457 197.614043 &#10;C 209.942691 195.902164 207.62056 194.940306 205.199598 194.940306 &#10;C 202.778635 194.940306 200.456504 195.902164 198.744625 197.614043 &#10;C 197.032747 199.325921 196.070888 201.648053 196.070888 204.069015 &#10;C 196.070888 206.489977 197.032747 208.812109 198.744625 210.523987 &#10;C 200.456504 212.235866 202.778635 213.197724 205.199598 213.197724 &#10;z&#10;" style="fill:#1f7ab5;stroke:#5c88a5;stroke-width:2.2;"/>
    <path clip-path="url(#pd5eab2faf7)" d="M 154.115742 241.616976 &#10;C 155.991011 241.616976 157.789727 240.871924 159.115742 239.545908 &#10;C 160.441758 238.219893 161.18681 236.421177 161.18681 234.545908 &#10;C 161.18681 232.670639 160.441758 230.871924 159.115742 229.545908 &#10;C 157.789727 228.219893 155.991011 227.47484 154.115742 227.47484 &#10;C 152.240473 227.47484 150.441758 228.219893 149.115742 229.545908 &#10;C 147.789727 230.871924 147.044674 232.670639 147.044674 234.545908 &#10;C 147.044674 236.421177 147.789727 238.219893 149.115742 239.545908 &#10;C 150.441758 240.871924 152.240473 241.616976 154.115742 241.616976 &#10;z&#10;" style="fill:#234da0;stroke:#5e729b;stroke-width:2.2;"/>
   </g>
   <g id="text_15">
    <text style="font-family:Arial;font-size:11px;font-stretch:normal;font-style:normal;font-weight:normal;text-anchor:middle;" transform="rotate(-0, 334.612031, 15.207656)" x="334.612031" y="15.207656">KEGG Pathways enrichment</text>
   </g>
   <g id="line2d_27">
    <path clip-path="url(#pd5eab2faf7)" d="M 515.10832 40.712868 &#10;L 515.10832 62.656231 &#10;" style="fill:none;stroke:#808080;stroke-dasharray:1.85,0.8;stroke-dashoffset:0;stroke-width:0.5;"/>
   </g>
   <g id="line2d_28">
    <path clip-path="url(#pd5eab2faf7)" d="M 412.940609 73.627912 &#10;L 412.940609 90.694973 &#10;" style="fill:none;stroke:#808080;stroke-dasharray:1.85,0.8;stroke-dashoffset:0;stroke-width:0.5;"/>
   </g>
   <g id="line2d_29">
    <path clip-path="url(#pd5eab2faf7)" d="M 358.451164 104.104806 &#10;L 358.451164 121.171866 &#10;" style="fill:none;stroke:#808080;stroke-dasharray:1.85,0.8;stroke-dashoffset:0;stroke-width:0.5;"/>
   </g>
   <g id="line2d_30">
    <path clip-path="url(#pd5eab2faf7)" d="M 290.339356 137.01985 &#10;L 290.339356 149.210607 &#10;" style="fill:none;stroke:#808080;stroke-dasharray:1.85,0.8;stroke-dashoffset:0;stroke-width:0.5;"/>
   </g>
   <g id="line2d_31">
    <path clip-path="url(#pd5eab2faf7)" d="M 280.122585 165.058592 &#10;L 280.122585 182.125652 &#10;" style="fill:none;stroke:#808080;stroke-dasharray:1.85,0.8;stroke-dashoffset:0;stroke-width:0.5;"/>
   </g>
   <g id="line2d_32">
    <path clip-path="url(#pd5eab2faf7)" d="M 205.199598 197.973636 &#10;L 205.199598 210.164394 &#10;" style="fill:none;stroke:#808080;stroke-dasharray:1.85,0.8;stroke-dashoffset:0;stroke-width:0.5;"/>
   </g>
   <g id="line2d_33">
    <path clip-path="url(#pd5eab2faf7)" d="M 154.115742 230.888681 &#10;L 154.115742 238.203135 &#10;" style="fill:none;stroke:#808080;stroke-dasharray:1.85,0.8;stroke-dashoffset:0;stroke-width:0.5;"/>
   </g>
  </g>
  <g id="axes_2">
   <g id="patch_10">
    <path d="M 548.276864 265.022801 &#10;L 649.19952 265.022801 &#10;L 649.19952 21.207656 &#10;L 548.276864 21.207656 &#10;z&#10;" style="fill:none;"/>
   </g>
   <g id="patch_11">
    <path clip-path="url(#p0b5565caf2)" d="M 548.276864 247.498588 &#10;L 560.892196 247.498588 &#10;L 560.892196 219.764615 &#10;L 548.276864 219.764615 &#10;z&#10;" style="fill:#234da0;"/>
   </g>
   <g id="patch_12">
    <path clip-path="url(#p0b5565caf2)" d="M 548.276864 217.021695 &#10;L 560.892196 217.021695 &#10;L 560.892196 189.287722 &#10;L 548.276864 189.287722 &#10;z&#10;" style="fill:#1f7ab5;"/>
   </g>
   <g id="patch_13">
    <path clip-path="url(#p0b5565caf2)" d="M 548.276864 186.544801 &#10;L 560.892196 186.544801 &#10;L 560.892196 158.810829 &#10;L 548.276864 158.810829 &#10;z&#10;" style="fill:#2fa4c2;"/>
   </g>
   <g id="patch_14">
    <path clip-path="url(#p0b5565caf2)" d="M 548.276864 156.067908 &#10;L 560.892196 156.067908 &#10;L 560.892196 128.333936 &#10;L 548.276864 128.333936 &#10;z&#10;" style="fill:#2fa4c2;"/>
   </g>
   <g id="patch_15">
    <path clip-path="url(#p0b5565caf2)" d="M 548.276864 125.591015 &#10;L 560.892196 125.591015 &#10;L 560.892196 97.857042 &#10;L 548.276864 97.857042 &#10;z&#10;" style="fill:#5fc1c0;"/>
   </g>
   <g id="patch_16">
    <path clip-path="url(#p0b5565caf2)" d="M 548.276864 95.114122 &#10;L 560.892196 95.114122 &#10;L 560.892196 67.380149 &#10;L 548.276864 67.380149 &#10;z&#10;" style="fill:#a0dab8;"/>
   </g>
   <g id="patch_17">
    <path clip-path="url(#p0b5565caf2)" d="M 548.276864 64.637229 &#10;L 560.892196 64.637229 &#10;L 560.892196 36.903256 &#10;L 548.276864 36.903256 &#10;z&#10;" style="fill:#d6efb3;"/>
   </g>
   <g id="matplotlib.axis_3"/>
   <g id="matplotlib.axis_4"/>
   <g id="text_16">
    <text style="font-family:Arial;font-size:9px;font-stretch:normal;font-style:normal;font-weight:normal;" transform="translate(575.836278 184.724787)rotate(-90)">Groups at similarity 0.8</text>
   </g>
  </g>
  <g id="axes_3">
   <g id="patch_18">
    <path d="M 587.39976 122.99976 &#10;L 652.19976 122.99976 &#10;L 652.19976 14.99976 &#10;L 587.39976 14.99976 &#10;z&#10;" style="fill:none;"/>
   </g>
   <g id="PathCollection_2">
    <defs>
     <path d="M -70.710678 70.710678 &#10;L 70.710678 70.710678 &#10;L 70.710678 -70.710678 &#10;L -70.710678 -70.710678 &#10;z&#10;" id="mea016c9f3b" style="stroke:#ffffff;stroke-opacity:0.6;"/>
    </defs>
    <g clip-path="url(#p743d058944)">
     <use style="fill:#ffffff;fill-opacity:0.6;stroke:#ffffff;stroke-opacity:0.6;" x="619.79976" xlink:href="#mea016c9f3b" y="68.99976"/>
    </g>
   </g>
   <g id="matplotlib.axis_5">
    <g id="xtick_7"/>
    <g id="xtick_8"/>
    <g id="xtick_9"/>
   </g>
   <g id="matplotlib.axis_6">
    <g id="ytick_8"/>
    <g id="ytick_9"/>
    <g id="ytick_10"/>
    <g id="ytick_11"/>
    <g id="ytick_12"/>
   </g>
  </g>
  <g id="axes_4">
   <g id="patch_19">
    <path d="M 593.87976 119.39976 &#10;L 604.67976 119.39976 &#10;L 604.67976 32.99976 &#10;L 593.87976 32.99976 &#10;z&#10;" style="fill:none;"/>
   </g>
   <g id="patch_20">
    <path clip-path="url(#p83d1cdc03a)" d="M 593.87976 32.99976 &#10;L 593.87976 47.39976 &#10;L 593.87976 104.99976 &#10;L 593.87976 119.39976 &#10;L 604.67976 119.39976 &#10;L 604.67976 104.99976 &#10;L 604.67976 47.39976 &#10;L 604.67976 32.99976 &#10;L 604.67976 32.99976 &#10;z&#10;" style="fill:#ffffff;stroke:#ffffff;stroke-linejoin:miter;stroke-width:0.01;"/>
   </g>
   <g id="QuadMesh_1">
    <path clip-path="url(#p83d1cdc03a)" d="M 593.87976 32.99976 &#10;L 604.67976 32.99976 &#10;L 604.67976 47.39976 &#10;L 593.87976 47.39976 &#10;L 593.87976 32.99976 &#10;" style="fill:#d6efb3;"/>
    <path clip-path="url(#p83d1cdc03a)" d="M 593.87976 47.39976 &#10;L 604.67976 47.39976 &#10;L 604.67976 61.79976 &#10;L 593.87976 61.79976 &#10;L 593.87976 47.39976 &#10;" style="fill:#a0dab8;"/>
    <path clip-path="url(#p83d1cdc03a)" d="M 593.87976 61.79976 &#10;L 604.67976 61.79976 &#10;L 604.67976 76.19976 &#10;L 593.87976 76.19976 &#10;L 593.87976 61.79976 &#10;" style="fill:#5fc1c0;"/>
    <path clip-path="url(#p83d1cdc03a)" d="M 593.87976 76.19976 &#10;L 604.67976 76.19976 &#10;L 604.67976 90.59976 &#10;L 593.87976 90.59976 &#10;L 593.87976 76.19976 &#10;" style="fill:#2fa4c2;"/>
    <path clip-path="url(#p83d1cdc03a)" d="M 593.87976 90.59976 &#10;L 604.67976 90.59976 &#10;L 604.67976 104.99976 &#10;L 593.87976 104.99976 &#10;L 593.87976 90.59976 &#10;" style="fill:#1f7ab5;"/>
    <path clip-path="url(#p83d1cdc03a)" d="M 593.87976 104.99976 &#10;L 604.67976 104.99976 &#10;L 604.67976 119.39976 &#10;L 593.87976 119.39976 &#10;L 593.87976 104.99976 &#10;" style="fill:#234da0;"/>
   </g>
   <g id="matplotlib.axis_7"/>
   <g id="matplotlib.axis_8">
    <g id="ytick_13">
     <g id="line2d_34">
      <defs>
       <path d="M 0 0 &#10;L 3.5 0 &#10;" id="m4fad799690" style="stroke:#000000;stroke-width:0.8;"/>
      </defs>
      <g>
       <use style="stroke:#000000;stroke-width:0.8;" x="604.67976" xlink:href="#m4fad799690" y="112.19976"/>
      </g>
     </g>
     <g id="text_17">
      <text style="font-family:Arial;font-size:9px;font-stretch:normal;font-style:normal;font-weight:normal;text-anchor:start;" transform="rotate(-0, 611.67976, 115.420776)" x="611.67976" y="115.420776">3.0e-02</text>
     </g>
    </g>
    <g id="ytick_14">
     <g id="line2d_35">
      <g>
       <use style="stroke:#000000;stroke-width:0.8;" x="604.67976" xlink:href="#m4fad799690" y="97.79976"/>
      </g>
     </g>
     <g id="text_18">
      <text style="font-family:Arial;font-size:9px;font-stretch:normal;font-style:normal;font-weight:normal;text-anchor:start;" transform="rotate(-0, 611.67976, 101.020776)" x="611.67976" y="101.020776">6.0e-03</text>
     </g>
    </g>
    <g id="ytick_15">
     <g id="line2d_36">
      <g>
       <use style="stroke:#000000;stroke-width:0.8;" x="604.67976" xlink:href="#m4fad799690" y="83.39976"/>
      </g>
     </g>
     <g id="text_19">
      <text style="font-family:Arial;font-size:9px;font-stretch:normal;font-style:normal;font-weight:normal;text-anchor:start;" transform="rotate(-0, 611.67976, 86.620776)" x="611.67976" y="86.620776">1.0e-03</text>
     </g>
    </g>
    <g id="ytick_16">
     <g id="line2d_37">
      <g>
       <use style="stroke:#000000;stroke-width:0.8;" x="604.67976" xlink:href="#m4fad799690" y="68.99976"/>
      </g>
     </g>
     <g id="text_20">
      <text style="font-family:Arial;font-size:9px;font-stretch:normal;font-style:normal;font-weight:normal;text-anchor:start;" transform="rotate(-0, 611.67976, 72.220776)" x="611.67976" y="72.220776">2.0e-04</text>
     </g>
    </g>
    <g id="ytick_17">
     <g id="line2d_38">
      <g>
       <use style="stroke:#000000;stroke-width:0.8;" x="604.67976" xlink:href="#m4fad799690" y="54.59976"/>
      </g>
     </g>
     <g id="text_21">
      <text style="font-family:Arial;font-size:9px;font-stretch:normal;font-style:normal;font-weight:normal;text-anchor:start;" transform="rotate(-0, 611.67976, 57.820776)" x="611.67976" y="57.820776">5.0e-05</text>
     </g>
    </g>
    <g id="ytick_18">
     <g id="line2d_39">
      <g>
       <use style="stroke:#000000;stroke-width:0.8;" x="604.67976" xlink:href="#m4fad799690" y="40.19976"/>
      </g>
     </g>
     <g id="text_22">
      <text style="font-family:Arial;font-size:9px;font-stretch:normal;font-style:normal;font-weight:normal;text-anchor:start;" transform="rotate(-0, 611.67976, 43.420776)" x="611.67976" y="43.420776">1.0e-05</text>
     </g>
    </g>
   </g>
   <g id="LineCollection_1"/>
   <g id="patch_21">
    <path d="M 593.87976 32.99976 &#10;L 593.87976 47.39976 &#10;L 593.87976 104.99976 &#10;L 593.87976 119.39976 &#10;L 604.67976 119.39976 &#10;L 604.67976 104.99976 &#10;L 604.67976 47.39976 &#10;L 604.67976 32.99976 &#10;z&#10;" style="fill:none;"/>
   </g>
   <g id="text_23">
    <text style="font-family:Arial;font-size:9px;font-stretch:normal;font-style:normal;font-weight:normal;text-anchor:middle;" transform="rotate(-0, 599.27976, 26.99976)" x="599.27976" y="26.99976">FDR</text>
   </g>
  </g>
  <g id="axes_5">
   <g id="patch_22">
    <path d="M 587.39976 236.32776 &#10;L 648.95976 236.32776 &#10;L 648.95976 130.57416 &#10;L 587.39976 130.57416 &#10;z&#10;" style="fill:none;"/>
   </g>
   <g id="PathCollection_3">
    <g clip-path="url(#p0dcbc05a66)">
     <use style="fill:#ffffff;fill-opacity:0.6;stroke:#ffffff;stroke-opacity:0.6;" x="618.17976" xlink:href="#mea016c9f3b" y="183.45096"/>
    </g>
   </g>
   <g id="matplotlib.axis_9">
    <g id="xtick_10"/>
    <g id="xtick_11"/>
    <g id="xtick_12"/>
   </g>
   <g id="matplotlib.axis_10">
    <g id="ytick_19"/>
    <g id="ytick_20"/>
    <g id="ytick_21"/>
    <g id="ytick_22"/>
    <g id="ytick_23"/>
   </g>
  </g>
  <g id="axes_6">
   <g id="PathCollection_4">
    <defs>
     <path d="M 0 7.071068 &#10;C 1.875269 7.071068 3.673985 6.326016 5 5 &#10;C 6.326016 3.673985 7.071068 1.875269 7.071068 0 &#10;C 7.071068 -1.875269 6.326016 -3.673985 5 -5 &#10;C 3.673985 -6.326016 1.875269 -7.071068 0 -7.071068 &#10;C -1.875269 -7.071068 -3.673985 -6.326016 -5 -5 &#10;C -6.326016 -3.673985 -7.071068 -1.875269 -7.071068 0 &#10;C -7.071068 1.875269 -6.326016 3.673985 -5 5 &#10;C -3.673985 6.326016 -1.875269 7.071068 0 7.071068 &#10;z&#10;" id="m6c426d410e" style="stroke:#b5c2a4;stroke-width:2.2;"/>
    </defs>
    <g clip-path="url(#p744e3fd064)">
     <use style="fill:#d6efb3;stroke:#b5c2a4;stroke-width:2.2;" x="610.07976" xlink:href="#m6c426d410e" y="158.368375"/>
    </g>
   </g>
   <g id="PathCollection_5">
    <defs>
     <path d="M 0 10.801234 &#10;C 2.864521 10.801234 5.612104 9.663148 7.637626 7.637626 &#10;C 9.663148 5.612104 10.801234 2.864521 10.801234 0 &#10;C 10.801234 -2.864521 9.663148 -5.612104 7.637626 -7.637626 &#10;C 5.612104 -9.663148 2.864521 -10.801234 0 -10.801234 &#10;C -2.864521 -10.801234 -5.612104 -9.663148 -7.637626 -7.637626 &#10;C -9.663148 -5.612104 -10.801234 -2.864521 -10.801234 0 &#10;C -10.801234 2.864521 -9.663148 5.612104 -7.637626 7.637626 &#10;C -5.612104 9.663148 -2.864521 10.801234 0 10.801234 &#10;z&#10;" id="m55c6cd7dc8" style="stroke:#b5c2a4;stroke-width:2.2;"/>
    </defs>
    <g clip-path="url(#p744e3fd064)">
     <use style="fill:#d6efb3;stroke:#b5c2a4;stroke-width:2.2;" x="610.07976" xlink:href="#m55c6cd7dc8" y="184.643259"/>
    </g>
   </g>
   <g id="PathCollection_6">
    <defs>
     <path d="M 0 12.247449 &#10;C 3.248061 12.247449 6.363528 10.95698 8.660254 8.660254 &#10;C 10.95698 6.363528 12.247449 3.248061 12.247449 0 &#10;C 12.247449 -3.248061 10.95698 -6.363528 8.660254 -8.660254 &#10;C 6.363528 -10.95698 3.248061 -12.247449 0 -12.247449 &#10;C -3.248061 -12.247449 -6.363528 -10.95698 -8.660254 -8.660254 &#10;C -10.95698 -6.363528 -12.247449 -3.248061 -12.247449 0 &#10;C -12.247449 3.248061 -10.95698 6.363528 -8.660254 8.660254 &#10;C -6.363528 10.95698 -3.248061 12.247449 0 12.247449 &#10;z&#10;" id="m66ef52509a" style="stroke:#b5c2a4;stroke-width:2.2;"/>
    </defs>
    <g clip-path="url(#p744e3fd064)">
     <use style="fill:#d6efb3;stroke:#b5c2a4;stroke-width:2.2;" x="610.07976" xlink:href="#m66ef52509a" y="215.85169"/>
    </g>
   </g>
   <g id="text_24">
    <text style="font-family:Arial;font-size:9px;font-stretch:normal;font-style:normal;font-weight:normal;text-anchor:start;" transform="rotate(-0, 626.27976, 161.824862)" x="626.27976" y="161.824862">2</text>
   </g>
   <g id="text_25">
    <text style="font-family:Arial;font-size:9px;font-stretch:normal;font-style:normal;font-weight:normal;text-anchor:start;" transform="rotate(-0, 626.27976, 188.099746)" x="626.27976" y="188.099746">4</text>
   </g>
   <g id="text_26">
    <text style="font-family:Arial;font-size:9px;font-stretch:normal;font-style:normal;font-weight:normal;text-anchor:start;" transform="rotate(-0, 626.27976, 219.308177)" x="626.27976" y="219.308177">5</text>
   </g>
   <g id="text_27">
    <text style="font-family:Arial;font-size:9px;font-stretch:normal;font-style:normal;font-weight:normal;text-anchor:middle;" transform="rotate(-0, 616.55976, 142.19976)" x="616.55976" y="142.19976">Gene count</text>
   </g>
  </g>
 </g>
 <defs>
  <clipPath id="pd5eab2faf7">
   <rect height="243.815145" width="403.690625" x="132.766719" y="21.207656"/>
  </clipPath>
  <clipPath id="p0b5565caf2">
   <rect height="243.815145" width="100.922656" x="548.276864" y="21.207656"/>
  </clipPath>
  <clipPath id="p743d058944">
   <rect height="108" width="64.8" x="587.39976" y="14.99976"/>
  </clipPath>
  <clipPath id="p83d1cdc03a">
   <rect height="86.4" width="10.8" x="593.87976" y="32.99976"/>
  </clipPath>
  <clipPath id="p0dcbc05a66">
   <rect height="105.7536" width="61.56" x="587.39976" y="130.57416"/>
  </clipPath>
  <clipPath id="p744e3fd064">
   <rect height="146.88" width="32.4" x="593.87976" y="148.19976"/>
  </clipPath>
 </defs>
</svg>